<?xml version="1.0" encoding="UTF-8" standalone="no"?><svg xmlns="http://www.w3.org/2000/svg" xmlns:xlink="http://www.w3.org/1999/xlink" contentStyleType="text/css" height="220px" preserveAspectRatio="none" style="width:816px;height:220px;background:#FFFFFF;" version="1.1" viewBox="0 0 816 220" width="816px" zoomAndPan="magnify"><defs/><g><!--MD5=[3fd616f346a44cd59a91eb10b19e157c]
class User--><g id="elem_User"><rect codeLine="8" fill="#F1F1F1" height="96" id="User" rx="2.5" ry="2.5" style="stroke:#181818;stroke-width:0.5;" width="150" x="659" y="117"/><text fill="#000000" font-family="Helvetica" font-size="14" lengthAdjust="spacing" textLength="30" x="719" y="132.7803">User</text><line style="stroke:#181818;stroke-width:0.5;" x1="660" x2="808" y1="141" y2="141"/><ellipse cx="670" cy="153.5" fill="#000000" rx="3" ry="3" style="stroke:#000000;stroke-width:1.0;"/><text fill="#000000" font-family="Helvetica" font-size="14" lengthAdjust="spacing" textLength="124" x="679" y="155.7803">Id : int «generated»</text><line style="stroke:#181818;stroke-width:1.0;" x1="660" x2="808" y1="163" y2="163"/><ellipse cx="670" cy="175.5" fill="#000000" rx="3" ry="3" style="stroke:#000000;stroke-width:1.0;"/><text fill="#000000" font-family="Helvetica" font-size="14" lengthAdjust="spacing" textLength="89" x="679" y="177.7803">UserId : string</text><ellipse cx="670" cy="189.5" fill="#000000" rx="3" ry="3" style="stroke:#000000;stroke-width:1.0;"/><text fill="#000000" font-family="Helvetica" font-size="14" lengthAdjust="spacing" textLength="115" x="679" y="191.7803">UserName : string</text><ellipse cx="670" cy="203.5" fill="#000000" rx="3" ry="3" style="stroke:#000000;stroke-width:1.0;"/><text fill="#000000" font-family="Helvetica" font-size="14" lengthAdjust="spacing" textLength="107" x="679" y="205.7803">Role : int (Enum)</text></g><!--MD5=[c3f280b58e8dd0683e81b8ec31306a35]
class Author--><g id="elem_Author"><rect codeLine="16" fill="#F1F1F1" height="68" id="Author" rx="2.5" ry="2.5" style="stroke:#181818;stroke-width:0.5;" width="150" x="659" y="14"/><text fill="#000000" font-family="Helvetica" font-size="14" lengthAdjust="spacing" textLength="42" x="713" y="29.7803">Author</text><line style="stroke:#181818;stroke-width:0.5;" x1="660" x2="808" y1="38" y2="38"/><ellipse cx="670" cy="50.5" fill="#000000" rx="3" ry="3" style="stroke:#000000;stroke-width:1.0;"/><text fill="#000000" font-family="Helvetica" font-size="14" lengthAdjust="spacing" textLength="124" x="679" y="52.7803">Id : int «generated»</text><line style="stroke:#181818;stroke-width:1.0;" x1="660" x2="808" y1="60" y2="60"/><ellipse cx="670" cy="72.5" fill="#000000" rx="3" ry="3" style="stroke:#000000;stroke-width:1.0;"/><text fill="#000000" font-family="Helvetica" font-size="14" lengthAdjust="spacing" textLength="85" x="679" y="74.7803">Name : string</text></g><!--MD5=[13fb849c6dfc9273db4c5b2c7ac96a10]
class Publisher--><g id="elem_Publisher"><rect codeLine="22" fill="#F1F1F1" height="68" id="Publisher" rx="2.5" ry="2.5" style="stroke:#181818;stroke-width:0.5;" width="150" x="7" y="73"/><text fill="#000000" font-family="Helvetica" font-size="14" lengthAdjust="spacing" textLength="59" x="52.5" y="88.7803">Publisher</text><line style="stroke:#181818;stroke-width:0.5;" x1="8" x2="156" y1="97" y2="97"/><ellipse cx="18" cy="109.5" fill="#000000" rx="3" ry="3" style="stroke:#000000;stroke-width:1.0;"/><text fill="#000000" font-family="Helvetica" font-size="14" lengthAdjust="spacing" textLength="124" x="27" y="111.7803">Id : int «generated»</text><line style="stroke:#181818;stroke-width:1.0;" x1="8" x2="156" y1="119" y2="119"/><ellipse cx="18" cy="131.5" fill="#000000" rx="3" ry="3" style="stroke:#000000;stroke-width:1.0;"/><text fill="#000000" font-family="Helvetica" font-size="14" lengthAdjust="spacing" textLength="85" x="27" y="133.7803">Name : string</text></g><!--MD5=[84e3a5e42879fb3231104d3c8e592439]
class Book--><g id="elem_Book"><rect codeLine="28" fill="#F1F1F1" height="110" id="Book" rx="2.5" ry="2.5" style="stroke:#181818;stroke-width:0.5;" width="175" x="217" y="52"/><text fill="#000000" font-family="Helvetica" font-size="14" lengthAdjust="spacing" textLength="32" x="288.5" y="67.7803">Book</text><line style="stroke:#181818;stroke-width:0.5;" x1="218" x2="391" y1="76" y2="76"/><ellipse cx="228" cy="88.5" fill="#000000" rx="3" ry="3" style="stroke:#000000;stroke-width:1.0;"/><text fill="#000000" font-family="Helvetica" font-size="14" lengthAdjust="spacing" textLength="124" x="237" y="90.7803">Id : int «generated»</text><line style="stroke:#181818;stroke-width:1.0;" x1="218" x2="391" y1="98" y2="98"/><ellipse cx="228" cy="110.5" fill="#000000" rx="3" ry="3" style="stroke:#000000;stroke-width:1.0;"/><text fill="#000000" font-family="Helvetica" font-size="14" lengthAdjust="spacing" textLength="79" x="237" y="112.7803">ISBN : string</text><ellipse cx="228" cy="124.5" fill="#000000" rx="3" ry="3" style="stroke:#000000;stroke-width:1.0;"/><text fill="#000000" font-family="Helvetica" font-size="14" lengthAdjust="spacing" textLength="74" x="237" y="126.7803">Title : string</text><ellipse cx="228" cy="138.5" fill="#000000" rx="3" ry="3" style="stroke:#000000;stroke-width:1.0;"/><text fill="#000000" font-family="Helvetica" font-size="14" lengthAdjust="spacing" textLength="149" x="237" y="140.7803">PublishedAt : DateTime</text><ellipse cx="228" cy="152.5" fill="#000000" rx="3" ry="3" style="stroke:#000000;stroke-width:1.0;"/><text fill="#000000" font-family="Helvetica" font-size="14" lengthAdjust="spacing" textLength="136" x="237" y="154.7803">PublisherId : int «FK»</text></g><!--MD5=[28be3cc4e2a027a79614b7e5ec169433]
class BookAuthor--><g id="elem_BookAuthor"><rect codeLine="37" fill="#F1F1F1" height="82" id="BookAuthor" rx="2.5" ry="2.5" style="stroke:#181818;stroke-width:0.5;" width="145" x="453" y="7"/><text fill="#000000" font-family="Helvetica" font-size="14" lengthAdjust="spacing" textLength="74" x="488.5" y="22.7803">BookAuthor</text><line style="stroke:#181818;stroke-width:0.5;" x1="454" x2="597" y1="31" y2="31"/><ellipse cx="464" cy="43.5" fill="#000000" rx="3" ry="3" style="stroke:#000000;stroke-width:1.0;"/><text fill="#000000" font-family="Helvetica" font-size="14" lengthAdjust="spacing" textLength="109" x="473" y="45.7803">BookId : int «FK»</text><ellipse cx="464" cy="57.5" fill="#000000" rx="3" ry="3" style="stroke:#000000;stroke-width:1.0;"/><text fill="#000000" font-family="Helvetica" font-size="14" lengthAdjust="spacing" textLength="119" x="473" y="59.7803">AuthorId : int «FK»</text><line style="stroke:#181818;stroke-width:1.0;" x1="454" x2="597" y1="67" y2="67"/><ellipse cx="464" cy="79.5" fill="#000000" rx="3" ry="3" style="stroke:#000000;stroke-width:1.0;"/><text fill="#000000" font-family="Helvetica" font-size="14" lengthAdjust="spacing" textLength="64" x="473" y="81.7803">Order : int</text></g><!--MD5=[d17ae820432ffcae9860f3b32652a1f4]
class BookLike--><g id="elem_BookLike"><rect codeLine="44" fill="#F1F1F1" height="82" id="BookLike" rx="2.5" ry="2.5" style="stroke:#181818;stroke-width:0.5;" width="147" x="452" y="124"/><text fill="#000000" font-family="Helvetica" font-size="14" lengthAdjust="spacing" textLength="58" x="496.5" y="139.7803">BookLike</text><line style="stroke:#181818;stroke-width:0.5;" x1="453" x2="598" y1="148" y2="148"/><ellipse cx="463" cy="160.5" fill="#000000" rx="3" ry="3" style="stroke:#000000;stroke-width:1.0;"/><text fill="#000000" font-family="Helvetica" font-size="14" lengthAdjust="spacing" textLength="109" x="472" y="162.7803">BookId : int «FK»</text><ellipse cx="463" cy="174.5" fill="#000000" rx="3" ry="3" style="stroke:#000000;stroke-width:1.0;"/><text fill="#000000" font-family="Helvetica" font-size="14" lengthAdjust="spacing" textLength="107" x="472" y="176.7803">UserId : int «FK»</text><line style="stroke:#181818;stroke-width:1.0;" x1="453" x2="598" y1="184" y2="184"/><ellipse cx="463" cy="196.5" fill="#000000" rx="3" ry="3" style="stroke:#000000;stroke-width:1.0;"/><text fill="#000000" font-family="Helvetica" font-size="14" lengthAdjust="spacing" textLength="121" x="472" y="198.7803">LikedAt : DateTime</text></g><!--MD5=[c3e87012688143702b9330dc959fdb4c]
link Publisher to Book--><g id="link_Publisher_Book"><path codeLine="51" d="M166.84,107 C166.84,107 207.06,107 207.06,107 " fill="none" id="Publisher-Book" style="stroke:#181818;stroke-width:1.0;stroke-dasharray:7.0,7.0;"/><line style="stroke:#181818;stroke-width:1.0;" x1="211.06" x2="211.06" y1="103" y2="111"/><line style="stroke:#181818;stroke-width:1.0;" x1="208.06" x2="208.06" y1="103" y2="111"/><line style="stroke:#181818;stroke-width:1.0;" x1="207.06" x2="215.06" y1="107" y2="107"/><line style="stroke:#181818;stroke-width:1.0;" x1="166.84" x2="158.84" y1="107" y2="113"/><line style="stroke:#181818;stroke-width:1.0;" x1="166.84" x2="158.84" y1="107" y2="101"/><line style="stroke:#181818;stroke-width:1.0;" x1="166.84" x2="158.84" y1="107" y2="107"/><ellipse cx="172.84" cy="107" fill="none" rx="4" ry="4" style="stroke:#181818;stroke-width:1.0;"/></g><!--MD5=[940dfac0f0250b9702395d08a4f9ba84]
link Book to BookAuthor--><g id="link_Book_BookAuthor"><path codeLine="52" d="M401.99,70.5 C401.99,70.5 443.22,70.5 443.22,70.5 " fill="none" id="Book-BookAuthor" style="stroke:#181818;stroke-width:1.0;stroke-dasharray:7.0,7.0;"/><line style="stroke:#181818;stroke-width:1.0;" x1="447.22" x2="447.22" y1="66.5" y2="74.5"/><line style="stroke:#181818;stroke-width:1.0;" x1="444.22" x2="444.22" y1="66.5" y2="74.5"/><line style="stroke:#181818;stroke-width:1.0;" x1="443.22" x2="451.22" y1="70.5" y2="70.5"/><line style="stroke:#181818;stroke-width:1.0;" x1="401.99" x2="393.99" y1="70.5" y2="76.5"/><line style="stroke:#181818;stroke-width:1.0;" x1="401.99" x2="393.99" y1="70.5" y2="64.5"/><line style="stroke:#181818;stroke-width:1.0;" x1="401.99" x2="393.99" y1="70.5" y2="70.5"/><line style="stroke:#181818;stroke-width:1.0;" x1="403.99" x2="403.99" y1="74.5" y2="66.5"/></g><!--MD5=[df0a76d37fd56aa19ec664565f1d7b4f]
link BookAuthor to Author--><g id="link_BookAuthor_Author"><path codeLine="53" d="M607.94,48 C607.94,48 649.13,48 649.13,48 " fill="none" id="BookAuthor-Author" style="stroke:#181818;stroke-width:1.0;stroke-dasharray:7.0,7.0;"/><line style="stroke:#181818;stroke-width:1.0;" x1="649.13" x2="657.13" y1="48" y2="42"/><line style="stroke:#181818;stroke-width:1.0;" x1="649.13" x2="657.13" y1="48" y2="54"/><line style="stroke:#181818;stroke-width:1.0;" x1="649.13" x2="657.13" y1="48" y2="48"/><ellipse cx="643.13" cy="48" fill="none" rx="4" ry="4" style="stroke:#181818;stroke-width:1.0;"/><line style="stroke:#181818;stroke-width:1.0;" x1="603.94" x2="603.94" y1="52" y2="44"/><line style="stroke:#181818;stroke-width:1.0;" x1="606.94" x2="606.94" y1="52" y2="44"/><line style="stroke:#181818;stroke-width:1.0;" x1="607.94" x2="599.94" y1="48" y2="48"/></g><!--MD5=[fc9b163492d48dd7884a06251ffdfb7d]
link Book to BookLike--><g id="link_Book_BookLike"><path codeLine="55" d="M401.99,143 C401.99,143 442.18,143 442.18,143 " fill="none" id="Book-BookLike" style="stroke:#181818;stroke-width:1.0;stroke-dasharray:7.0,7.0;"/><line style="stroke:#181818;stroke-width:1.0;" x1="446.18" x2="446.18" y1="139" y2="147"/><line style="stroke:#181818;stroke-width:1.0;" x1="443.18" x2="443.18" y1="139" y2="147"/><line style="stroke:#181818;stroke-width:1.0;" x1="442.18" x2="450.18" y1="143" y2="143"/><line style="stroke:#181818;stroke-width:1.0;" x1="401.99" x2="393.99" y1="143" y2="149"/><line style="stroke:#181818;stroke-width:1.0;" x1="401.99" x2="393.99" y1="143" y2="137"/><line style="stroke:#181818;stroke-width:1.0;" x1="401.99" x2="393.99" y1="143" y2="143"/><ellipse cx="407.99" cy="143" fill="none" rx="4" ry="4" style="stroke:#181818;stroke-width:1.0;"/></g><!--MD5=[c2bfbd514c5ee479f7d8ff199d2d74f0]
link BookLike to User--><g id="link_BookLike_User"><path codeLine="56" d="M608.82,165 C608.82,165 649.02,165 649.02,165 " fill="none" id="BookLike-User" style="stroke:#181818;stroke-width:1.0;stroke-dasharray:7.0,7.0;"/><line style="stroke:#181818;stroke-width:1.0;" x1="649.02" x2="657.02" y1="165" y2="159"/><line style="stroke:#181818;stroke-width:1.0;" x1="649.02" x2="657.02" y1="165" y2="171"/><line style="stroke:#181818;stroke-width:1.0;" x1="649.02" x2="657.02" y1="165" y2="165"/><ellipse cx="643.02" cy="165" fill="none" rx="4" ry="4" style="stroke:#181818;stroke-width:1.0;"/><line style="stroke:#181818;stroke-width:1.0;" x1="604.82" x2="604.82" y1="169" y2="161"/><line style="stroke:#181818;stroke-width:1.0;" x1="607.82" x2="607.82" y1="169" y2="161"/><line style="stroke:#181818;stroke-width:1.0;" x1="608.82" x2="600.82" y1="165" y2="165"/></g><!--MD5=[5900c9e15e496e4ce8d73aec28dfc38e]
@startuml BookApi_ERModel

hide method
hide circle
skinparam DefaultFontName Helvetica
skinparam linetype ortho
left to right direction

entity User {
    * Id : int <<generated>>
    - -
    * UserId : string
    * UserName : string
    * Role : int (Enum)
}

entity Author {
    * Id : int <<generated>>
    - -
    * Name : string
}

entity Publisher {
    * Id : int <<generated>>
    - -
    * Name : string
}

entity Book {
    * Id : int <<generated>>
    - -
    * ISBN : string
    * Title : string
    * PublishedAt : DateTime
    * PublisherId : int <<FK>>
}

entity BookAuthor {
    * BookId : int <<FK>>
    * AuthorId : int <<FK>>
    - -
    * Order : int
}

entity BookLike {
    * BookId : int <<FK>>
    * UserId : int <<FK>>
    - -
    * LikedAt : DateTime
}

Book ||.up.o{ Publisher
Book }|..|| BookAuthor
BookAuthor ||..o{ Author

Book }o..|| BookLike
BookLike ||..o{ User
@enduml

PlantUML version 1.2022.7(Tue Aug 23 02:01:30 JST 2022)
(GPL source distribution)
Java Runtime: OpenJDK Runtime Environment
JVM: OpenJDK 64-Bit Server VM
Default Encoding: UTF-8
Language: ja
Country: JP
--></g></svg>