<?xml version="1.0" encoding="UTF-8" standalone="no"?><svg xmlns="http://www.w3.org/2000/svg" xmlns:xlink="http://www.w3.org/1999/xlink" contentStyleType="text/css" height="520px" preserveAspectRatio="none" style="width:1083px;height:520px;background:#FFFFFF;" version="1.1" viewBox="0 0 1083 520" width="1083px" zoomAndPan="magnify"><defs/><g><!--MD5=[121a8bf1197281ab89ed693fab589f94]
cluster Domain--><g id="cluster_Domain"><path d="M8.5,6 L101.5,6 A3.75,3.75 0 0 1 104,8.5 L111,26 L763.5,26 A2.5,2.5 0 0 1 766,28.5 L766,510.5 A2.5,2.5 0 0 1 763.5,513 L8.5,513 A2.5,2.5 0 0 1 6,510.5 L6,8.5 A2.5,2.5 0 0 1 8.5,6 " fill="none" style="stroke:#000000;stroke-width:1.5;"/><line style="stroke:#000000;stroke-width:1.5;" x1="6" x2="111" y1="26" y2="26"/><text fill="#000000" font-family="Helvetica" font-size="14" font-weight="bold" lengthAdjust="spacing" textLength="92" x="10" y="18.7803">Book Domain</text></g><!--MD5=[fa2671d3c42ab3db733cb0341bf998c6]
cluster User Domain--><g id="cluster_User Domain"><path d="M792.5,13 L880.5,13 A3.75,3.75 0 0 1 883,15.5 L890,33 L1073.5,33 A2.5,2.5 0 0 1 1076,35.5 L1076,374 A2.5,2.5 0 0 1 1073.5,376.5 L792.5,376.5 A2.5,2.5 0 0 1 790,374 L790,15.5 A2.5,2.5 0 0 1 792.5,13 " fill="none" style="stroke:#000000;stroke-width:1.5;"/><line style="stroke:#000000;stroke-width:1.5;" x1="790" x2="890" y1="33" y2="33"/><text fill="#000000" font-family="Helvetica" font-size="14" font-weight="bold" lengthAdjust="spacing" textLength="87" x="794" y="25.7803">User Domain</text></g><!--MD5=[c3f280b58e8dd0683e81b8ec31306a35]
class Author--><g id="elem_Author"><rect codeLine="6" fill="#F1F1F1" height="90" id="Author" rx="2.5" ry="2.5" style="stroke:#181818;stroke-width:0.5;" width="188" x="46" y="291"/><ellipse cx="114.75" cy="307" fill="#ADD1B2" rx="11" ry="11" style="stroke:#181818;stroke-width:1.0;"/><path d="M118.3643,313.5 L110.6445,313.5 L110.6445,301.1069 L118.3643,301.1069 L118.3643,303.2651 L113.0933,303.2651 L113.0933,305.938 L117.8662,305.938 L117.8662,308.0962 L113.0933,308.0962 L113.0933,311.3418 L118.3643,311.3418 Z " fill="#000000"/><text fill="#000000" font-family="Helvetica" font-size="14" lengthAdjust="spacing" textLength="42" x="135.25" y="310.7803">Author</text><line style="stroke:#181818;stroke-width:0.5;" x1="47" x2="233" y1="323" y2="323"/><ellipse cx="57" cy="335.5" fill="#000000" rx="3" ry="3" style="stroke:#000000;stroke-width:1.0;"/><text fill="#000000" font-family="Helvetica" font-size="14" lengthAdjust="spacing" textLength="80" x="66" y="337.7803">Id: Id «Slug»</text><line style="stroke:#181818;stroke-width:1.0;" x1="47" x2="233" y1="345" y2="345"/><ellipse cx="57" cy="357.5" fill="#000000" rx="3" ry="3" style="stroke:#000000;stroke-width:1.0;"/><text fill="#000000" font-family="Helvetica" font-size="14" lengthAdjust="spacing" textLength="84" x="66" y="359.7803">Name: Name</text><ellipse cx="57" cy="371.5" fill="#000000" rx="3" ry="3" style="stroke:#000000;stroke-width:1.0;"/><text fill="#000000" font-family="Helvetica" font-size="14" lengthAdjust="spacing" textLength="162" x="66" y="373.7803">«N/A»: RelatedPublishers</text></g><!--MD5=[13fb849c6dfc9273db4c5b2c7ac96a10]
class Publisher--><g id="elem_Publisher"><rect codeLine="13" fill="#F1F1F1" height="90" id="Publisher" rx="2.5" ry="2.5" style="stroke:#181818;stroke-width:0.5;" width="171" x="317.5" y="291"/><ellipse cx="369.25" cy="307" fill="#ADD1B2" rx="11" ry="11" style="stroke:#181818;stroke-width:1.0;"/><path d="M372.8643,313.5 L365.1445,313.5 L365.1445,301.1069 L372.8643,301.1069 L372.8643,303.2651 L367.5933,303.2651 L367.5933,305.938 L372.3662,305.938 L372.3662,308.0962 L367.5933,308.0962 L367.5933,311.3418 L372.8643,311.3418 Z " fill="#000000"/><text fill="#000000" font-family="Helvetica" font-size="14" lengthAdjust="spacing" textLength="59" x="389.75" y="310.7803">Publisher</text><line style="stroke:#181818;stroke-width:0.5;" x1="318.5" x2="487.5" y1="323" y2="323"/><ellipse cx="328.5" cy="335.5" fill="#000000" rx="3" ry="3" style="stroke:#000000;stroke-width:1.0;"/><text fill="#000000" font-family="Helvetica" font-size="14" lengthAdjust="spacing" textLength="80" x="337.5" y="337.7803">Id: Id «Slug»</text><line style="stroke:#181818;stroke-width:1.0;" x1="318.5" x2="487.5" y1="345" y2="345"/><ellipse cx="328.5" cy="357.5" fill="#000000" rx="3" ry="3" style="stroke:#000000;stroke-width:1.0;"/><text fill="#000000" font-family="Helvetica" font-size="14" lengthAdjust="spacing" textLength="84" x="337.5" y="359.7803">Name: Name</text><ellipse cx="328.5" cy="371.5" fill="#000000" rx="3" ry="3" style="stroke:#000000;stroke-width:1.0;"/><text fill="#000000" font-family="Helvetica" font-size="14" lengthAdjust="spacing" textLength="145" x="337.5" y="373.7803">«N/A»: RelatedAuthors</text></g><!--MD5=[84e3a5e42879fb3231104d3c8e592439]
class Book--><g id="elem_Book"><rect codeLine="20" fill="#F1F1F1" height="132" id="Book" rx="2.5" ry="2.5" style="stroke:#181818;stroke-width:0.5;" width="188" x="375" y="59"/><ellipse cx="448.75" cy="75" fill="#ADD1B2" rx="11" ry="11" style="stroke:#181818;stroke-width:1.0;"/><path d="M452.3643,81.5 L444.6445,81.5 L444.6445,69.1069 L452.3643,69.1069 L452.3643,71.2651 L447.0933,71.2651 L447.0933,73.938 L451.8662,73.938 L451.8662,76.0962 L447.0933,76.0962 L447.0933,79.3418 L452.3643,79.3418 Z " fill="#000000"/><text fill="#000000" font-family="Helvetica" font-size="14" lengthAdjust="spacing" textLength="32" x="469.25" y="78.7803">Book</text><line style="stroke:#181818;stroke-width:0.5;" x1="376" x2="562" y1="91" y2="91"/><ellipse cx="386" cy="103.5" fill="#000000" rx="3" ry="3" style="stroke:#000000;stroke-width:1.0;"/><text fill="#000000" font-family="Helvetica" font-size="14" lengthAdjust="spacing" textLength="120" x="395" y="105.7803">ISBN: ISBN «Slug»</text><line style="stroke:#181818;stroke-width:1.0;" x1="376" x2="562" y1="113" y2="113"/><ellipse cx="386" cy="125.5" fill="#000000" rx="3" ry="3" style="stroke:#000000;stroke-width:1.0;"/><text fill="#000000" font-family="Helvetica" font-size="14" lengthAdjust="spacing" textLength="59" x="395" y="127.7803">Id: «N/A»</text><ellipse cx="386" cy="139.5" fill="#000000" rx="3" ry="3" style="stroke:#000000;stroke-width:1.0;"/><text fill="#000000" font-family="Helvetica" font-size="14" lengthAdjust="spacing" textLength="62" x="395" y="141.7803">Title: Title</text><ellipse cx="386" cy="153.5" fill="#000000" rx="3" ry="3" style="stroke:#000000;stroke-width:1.0;"/><text fill="#000000" font-family="Helvetica" font-size="14" lengthAdjust="spacing" textLength="162" x="395" y="155.7803">PublishedAt : PublishedAt</text><ellipse cx="386" cy="167.5" fill="#000000" rx="3" ry="3" style="stroke:#000000;stroke-width:1.0;"/><text fill="#000000" font-family="Helvetica" font-size="14" lengthAdjust="spacing" textLength="126" x="395" y="169.7803">Publisher: Publisher</text><ellipse cx="386" cy="181.5" fill="#000000" rx="3" ry="3" style="stroke:#000000;stroke-width:1.0;"/><text fill="#000000" font-family="Helvetica" font-size="14" lengthAdjust="spacing" textLength="106" x="395" y="183.7803">Authors: Authors</text></g><!--MD5=[d17ae820432ffcae9860f3b32652a1f4]
class BookLike--><g id="elem_BookLike"><rect codeLine="30" fill="#F1F1F1" height="82" id="BookLike" rx="2.5" ry="2.5" style="stroke:#181818;stroke-width:0.5;" width="154" x="572" y="295"/><ellipse cx="615.8" cy="311" fill="#ADD1B2" rx="11" ry="11" style="stroke:#181818;stroke-width:1.0;"/><path d="M618.2731,317.1431 Q617.6921,317.4419 617.0529,317.5913 Q616.4138,317.7407 615.7082,317.7407 Q613.2014,317.7407 611.8815,316.0889 Q610.5617,314.437 610.5617,311.3159 Q610.5617,308.1865 611.8815,306.5347 Q613.2014,304.8828 615.7082,304.8828 Q616.4138,304.8828 617.0612,305.0322 Q617.7087,305.1816 618.2731,305.4805 L618.2731,308.2031 Q617.6423,307.6221 617.0488,307.3523 Q616.4553,307.0825 615.8244,307.0825 Q614.4797,307.0825 613.7949,308.1492 Q613.1101,309.2158 613.1101,311.3159 Q613.1101,313.4077 613.7949,314.4744 Q614.4797,315.541 615.8244,315.541 Q616.4553,315.541 617.0488,315.2712 Q617.6423,315.0015 618.2731,314.4204 Z " fill="#000000"/><text fill="#000000" font-family="Helvetica" font-size="14" lengthAdjust="spacing" textLength="58" x="636.2" y="314.7803">BookLike</text><line style="stroke:#181818;stroke-width:0.5;" x1="573" x2="725" y1="327" y2="327"/><ellipse cx="583" cy="339.5" fill="#000000" rx="3" ry="3" style="stroke:#000000;stroke-width:1.0;"/><text fill="#000000" font-family="Helvetica" font-size="14" lengthAdjust="spacing" textLength="128" x="592" y="341.7803">Book: Book / BookId</text><ellipse cx="583" cy="353.5" fill="#000000" rx="3" ry="3" style="stroke:#000000;stroke-width:1.0;"/><text fill="#000000" font-family="Helvetica" font-size="14" lengthAdjust="spacing" textLength="68" x="592" y="355.7803">User: User</text><ellipse cx="583" cy="367.5" fill="#000000" rx="3" ry="3" style="stroke:#000000;stroke-width:1.0;"/><text fill="#000000" font-family="Helvetica" font-size="14" lengthAdjust="spacing" textLength="102" x="592" y="369.7803">LikedAt: LikedAt</text></g><g id="elem_GMN10"><path d="M22,81 L22,169 A0,0 0 0 0 22,169 L316,169 A0,0 0 0 0 316,169 L316,129 L375.18,125 L316,121 L316,91 L306,81 L22,81 A0,0 0 0 0 22,81 " fill="#FEFFDD" style="stroke:#181818;stroke-width:0.5;"/><path d="M306,81 L306,91 L316,91 L306,81 " fill="#FEFFDD" style="stroke:#181818;stroke-width:0.5;"/><ellipse cx="33.5" cy="91.5" fill="#000000" rx="2.5" ry="2.5" style="stroke:#000000;stroke-width:0.0;"/><text fill="#000000" font-family="Helvetica" font-size="13" lengthAdjust="spacing" textLength="200" x="40" y="96.0103">ISBNにはバリデーションをかける</text><ellipse cx="33.5" cy="104.5" fill="#000000" rx="2.5" ry="2.5" style="stroke:#000000;stroke-width:0.0;"/><text fill="#000000" font-family="Helvetica" font-size="13" lengthAdjust="spacing" textLength="261" x="40" y="109.0103">ID (DB上の主キー) はResponseから秘匿する</text><ellipse cx="33.5" cy="117.5" fill="#000000" rx="2.5" ry="2.5" style="stroke:#000000;stroke-width:0.0;"/><text fill="#000000" font-family="Helvetica" font-size="13" lengthAdjust="spacing" textLength="221" x="40" y="122.0103">著者欄の入力はIDのリストにより行う</text><text fill="#000000" font-family="Helvetica" font-size="13" lengthAdjust="spacing" textLength="138" x="36" y="135.0103">- 入力順を保持すること</text><ellipse cx="33.5" cy="143.5" fill="#000000" rx="2.5" ry="2.5" style="stroke:#000000;stroke-width:0.0;"/><text fill="#000000" font-family="Helvetica" font-size="13" lengthAdjust="spacing" textLength="221" x="40" y="148.0103">出版日は未来の日時の入力も可とする</text><ellipse cx="33.5" cy="156.5" fill="#000000" rx="2.5" ry="2.5" style="stroke:#000000;stroke-width:0.0;"/><text fill="#000000" font-family="Helvetica" font-size="13" lengthAdjust="spacing" textLength="148" x="40" y="161.0103">ISBNの重複は許容しない</text></g><g id="elem_GMN13"><path d="M22,461 L22,497 A0,0 0 0 0 22,497 L392,497 A0,0 0 0 0 392,497 L392,471 L382,461 L202.79,461 L160.83,380.84 L194.79,461 L22,461 A0,0 0 0 0 22,461 " fill="#FEFFDD" style="stroke:#181818;stroke-width:0.5;"/><path d="M382,461 L382,471 L392,471 L382,461 " fill="#FEFFDD" style="stroke:#181818;stroke-width:0.5;"/><ellipse cx="33.5" cy="471.5" fill="#000000" rx="2.5" ry="2.5" style="stroke:#000000;stroke-width:0.0;"/><text fill="#000000" font-family="Helvetica" font-size="13" lengthAdjust="spacing" textLength="337" x="40" y="476.0103">日本語の人名には正規化を行わない (運用でカバーを想定)</text><ellipse cx="33.5" cy="484.5" fill="#000000" rx="2.5" ry="2.5" style="stroke:#000000;stroke-width:0.0;"/><text fill="#000000" font-family="Helvetica" font-size="13" lengthAdjust="spacing" textLength="156" x="40" y="489.0103">名前欄の重複は許容しない</text></g><g id="elem_GMN16"><path d="M427.5,467.5 L427.5,490.5 A0,0 0 0 0 427.5,490.5 L616.5,490.5 A0,0 0 0 0 616.5,490.5 L616.5,477.5 L606.5,467.5 L516.9,467.5 L440,380.84 L508.9,467.5 L427.5,467.5 A0,0 0 0 0 427.5,467.5 " fill="#FEFFDD" style="stroke:#181818;stroke-width:0.5;"/><path d="M606.5,467.5 L606.5,477.5 L616.5,477.5 L606.5,467.5 " fill="#FEFFDD" style="stroke:#181818;stroke-width:0.5;"/><ellipse cx="439" cy="478" fill="#000000" rx="2.5" ry="2.5" style="stroke:#000000;stroke-width:0.0;"/><text fill="#000000" font-family="Helvetica" font-size="13" lengthAdjust="spacing" textLength="156" x="445.5" y="482.5103">名前欄の重複は許容しない</text></g><!--MD5=[3fd616f346a44cd59a91eb10b19e157c]
class User--><g id="elem_User"><rect codeLine="60" fill="#F1F1F1" height="118" id="User" rx="2.5" ry="2.5" style="stroke:#181818;stroke-width:0.5;" width="188" x="834" y="66"/><ellipse cx="908.75" cy="82" fill="#ADD1B2" rx="11" ry="11" style="stroke:#181818;stroke-width:1.0;"/><path d="M912.3643,88.5 L904.6445,88.5 L904.6445,76.1069 L912.3643,76.1069 L912.3643,78.2651 L907.0933,78.2651 L907.0933,80.938 L911.8662,80.938 L911.8662,83.0962 L907.0933,83.0962 L907.0933,86.3418 L912.3643,86.3418 Z " fill="#000000"/><text fill="#000000" font-family="Helvetica" font-size="14" lengthAdjust="spacing" textLength="30" x="929.25" y="85.7803">User</text><line style="stroke:#181818;stroke-width:0.5;" x1="835" x2="1021" y1="98" y2="98"/><ellipse cx="845" cy="110.5" fill="#000000" rx="3" ry="3" style="stroke:#000000;stroke-width:1.0;"/><text fill="#000000" font-family="Helvetica" font-size="14" lengthAdjust="spacing" textLength="59" x="854" y="112.7803">Id: «N/A»</text><line style="stroke:#181818;stroke-width:1.0;" x1="835" x2="1021" y1="120" y2="120"/><ellipse cx="845" cy="132.5" fill="#000000" rx="3" ry="3" style="stroke:#000000;stroke-width:1.0;"/><text fill="#000000" font-family="Helvetica" font-size="14" lengthAdjust="spacing" textLength="144" x="854" y="134.7803">UserId : UserId «Slug»</text><ellipse cx="845" cy="146.5" fill="#000000" rx="3" ry="3" style="stroke:#000000;stroke-width:1.0;"/><text fill="#000000" font-family="Helvetica" font-size="14" lengthAdjust="spacing" textLength="84" x="854" y="148.7803">Name: Name</text><ellipse cx="845" cy="160.5" fill="#000000" rx="3" ry="3" style="stroke:#000000;stroke-width:1.0;"/><text fill="#000000" font-family="Helvetica" font-size="14" lengthAdjust="spacing" textLength="162" x="854" y="162.7803">HashedPassword : «N/A»</text><ellipse cx="845" cy="174.5" fill="#000000" rx="3" ry="3" style="stroke:#000000;stroke-width:1.0;"/><text fill="#000000" font-family="Helvetica" font-size="14" lengthAdjust="spacing" textLength="66" x="854" y="176.7803">Role: Role</text></g><g id="elem_GMN21"><path d="M806,311.5 L806,360.5 A0,0 0 0 0 806,360.5 L1060,360.5 A0,0 0 0 0 1060,360.5 L1060,321.5 L1050,311.5 L936.43,311.5 L929.39,183.94 L928.43,311.5 L806,311.5 A0,0 0 0 0 806,311.5 " fill="#FEFFDD" style="stroke:#181818;stroke-width:0.5;"/><path d="M1050,311.5 L1050,321.5 L1060,321.5 L1050,311.5 " fill="#FEFFDD" style="stroke:#181818;stroke-width:0.5;"/><ellipse cx="817.5" cy="322" fill="#000000" rx="2.5" ry="2.5" style="stroke:#000000;stroke-width:0.0;"/><text fill="#000000" font-family="Helvetica" font-size="13" lengthAdjust="spacing" textLength="221" x="824" y="326.5103">ユーザーIDは全て小文字に変換される</text><ellipse cx="817.5" cy="335" fill="#000000" rx="2.5" ry="2.5" style="stroke:#000000;stroke-width:0.0;"/><text fill="#000000" font-family="Helvetica" font-size="13" lengthAdjust="spacing" textLength="182" x="824" y="339.5103">ユーザーIDの重複は許容しない</text><ellipse cx="817.5" cy="348" fill="#000000" rx="2.5" ry="2.5" style="stroke:#000000;stroke-width:0.0;"/><text fill="#000000" font-family="Helvetica" font-size="13" lengthAdjust="spacing" textLength="195" x="824" y="352.5103">パスワードはハッシュ化して保存</text></g><!--MD5=[708ece48ef120737d1cb93104a627dff]
link Book to Author--><g id="link_Book_Author"><path codeLine="36" d="M363.7517,192.8557 C363.7517,192.8557 220.5183,283.8443 220.5183,283.8443 " fill="none" id="Book-Author" style="stroke:#181818;stroke-width:1.0;"/><polygon fill="#181818" points="210.39,290.28,217.5994,290.4383,220.5183,283.8443,213.3089,283.6861,210.39,290.28" style="stroke:#181818;stroke-width:1.0;"/><polygon fill="none" points="373.88,186.42,366.6706,186.2617,363.7517,192.8557,370.9611,193.0139,373.88,186.42" style="stroke:#181818;stroke-width:1.0;"/><text fill="#000000" font-family="Helvetica" font-size="13" lengthAdjust="spacing" textLength="20" x="346.8853" y="186.9321">0..*</text><text fill="#000000" font-family="Helvetica" font-size="13" lengthAdjust="spacing" textLength="20" x="198.5423" y="279.9068">1..*</text></g><!--MD5=[ec2e50c1be5731f061052daf6bf802ad]
link Book to Publisher--><g id="link_Book_Publisher"><path codeLine="37" d="M448.48,190.98 C439.71,218.74 429.57,250.86 421.09,277.71 " fill="none" id="Book-to-Publisher" style="stroke:#181818;stroke-width:1.0;"/><polygon fill="#181818" points="417.28,289.78,422.9006,285.2624,420.8923,278.3366,415.2717,282.8542,417.28,289.78" style="stroke:#181818;stroke-width:1.0;"/><text fill="#000000" font-family="Helvetica" font-size="13" lengthAdjust="spacing" textLength="20" x="444.7323" y="209.18">0..*</text><text fill="#000000" font-family="Helvetica" font-size="13" lengthAdjust="spacing" textLength="7" x="411.4763" y="280.0575">1</text></g><!--MD5=[fc9b163492d48dd7884a06251ffdfb7d]
link Book to BookLike--><g id="link_Book_BookLike"><path codeLine="38" d="M533.779,201.2243 C533.779,201.2243 605.741,284.7657 605.741,284.7657 " fill="none" id="Book-BookLike" style="stroke:#181818;stroke-width:1.0;"/><polygon fill="none" points="613.57,293.86,612.6869,286.7032,605.741,284.7657,606.6241,291.9225,613.57,293.86" style="stroke:#181818;stroke-width:1.0;"/><polygon fill="#181818" points="525.95,192.13,526.8331,199.2868,533.779,201.2243,532.8959,194.0675,525.95,192.13" style="stroke:#181818;stroke-width:1.0;"/><text fill="#000000" font-family="Helvetica" font-size="13" lengthAdjust="spacing" textLength="20" x="521.3468" y="209.18">1..*</text><text fill="#000000" font-family="Helvetica" font-size="13" lengthAdjust="spacing" textLength="20" x="587.188" y="284.1431">0..*</text></g><!--MD5=[ec607606f5ce25ed6b316ab8ded23278]
link User to BookLike--><g id="link_User_BookLike"><path codeLine="76" d="M839.84,192.05 C839.84,192.05 713,287.05 713,287.05 " fill="none" id="User-BookLike" style="stroke:#181818;stroke-width:1.0;"/><polygon fill="none" points="703.4,294.25,710.6,293.85,713,287.05,705.8,287.45,703.4,294.25" style="stroke:#181818;stroke-width:1.0;"/><polygon fill="#181818" points="849.44,184.85,842.24,185.25,839.84,192.05,847.04,191.65,849.44,184.85" style="stroke:#181818;stroke-width:1.0;"/><text fill="#000000" font-family="Helvetica" font-size="13" lengthAdjust="spacing" textLength="20" x="806.0828" y="195.699">1..*</text><text fill="#000000" font-family="Helvetica" font-size="13" lengthAdjust="spacing" textLength="20" x="689.6133" y="284.0337">0..*</text></g><!--MD5=[d4c9bdff0ab9d72f1f67a607555dc295]
@startuml BookApi_DomainModel

hide method
skinparam DefaultFontName Helvetica

package "Book Domain" as Domain {
    entity Author {
        * Id: Id <<Slug>>
        - -
        * Name: Name
        * <<N/A>>: RelatedPublishers
    }

    entity Publisher {
        * Id: Id <<Slug>>
        - -
        * Name: Name
        * <<N/A>>: RelatedAuthors
    }

    entity Book {
        * ISBN: ISBN <<Slug>>
        - -
        * Id: <<N/A>>
        * Title: Title
        * PublishedAt : PublishedAt
        * Publisher: Publisher
        * Authors: Authors
    }

    class BookLike {
        * Book: Book / BookId
        * User: User
        * LikedAt: LikedAt
    }

    Book "0..*" o- -* "1..*" Author
    Book "0..*" - -* "1" Publisher
    Book "1..*" *- -o "0..*" BookLike

    note left of Book
        * ISBNにはバリデーションをかける
        * ID (DB上の主キー) はResponseから秘匿する
        * 著者欄の入力はIDのリストにより行う
          - 入力順を保持すること
        * 出版日は未来の日時の入力も可とする
        * ISBNの重複は許容しない
    endnote

    note bottom of Author
        * 日本語の人名には正規化を行わない (運用でカバーを想定)
        * 名前欄の重複は許容しない
    endnote

    note bottom of Publisher
        * 名前欄の重複は許容しない
    endnote
}

package "User Domain" {
    entity User {
        * Id: <<N/A>>
        - -
        * UserId : UserId <<Slug>>
        * Name: Name
        * HashedPassword : <<N/A>>
        * Role: Role
    }

    note bottom of User
        * ユーザーIDは全て小文字に変換される
        * ユーザーIDの重複は許容しない
        * パスワードはハッシュ化して保存
    endnote
}

BookLike "0..*" o-up-* "1..*" User

@enduml

PlantUML version 1.2022.7(Tue Aug 23 02:01:30 JST 2022)
(GPL source distribution)
Java Runtime: OpenJDK Runtime Environment
JVM: OpenJDK 64-Bit Server VM
Default Encoding: UTF-8
Language: ja
Country: JP
--></g></svg>