<?xml version="1.0" encoding="UTF-8" standalone="no"?><svg xmlns="http://www.w3.org/2000/svg" xmlns:xlink="http://www.w3.org/1999/xlink" contentStyleType="text/css" height="247px" preserveAspectRatio="none" style="width:640px;height:247px;background:#FFFFFF;" version="1.1" viewBox="0 0 640 247" width="640px" zoomAndPan="magnify"><defs/><g><!--MD5=[00dbcaa95a5d030d912eb37e060db73b]
cluster Book Domain--><g id="cluster_Book Domain"><path d="M8.5,6 L101.5,6 A3.75,3.75 0 0 1 104,8.5 L111,26 L630.5,26 A2.5,2.5 0 0 1 633,28.5 L633,237.5 A2.5,2.5 0 0 1 630.5,240 L8.5,240 A2.5,2.5 0 0 1 6,237.5 L6,8.5 A2.5,2.5 0 0 1 8.5,6 " fill="none" style="stroke:#000000;stroke-width:1.5;"/><line style="stroke:#000000;stroke-width:1.5;" x1="6" x2="111" y1="26" y2="26"/><text fill="#000000" font-family="Helvetica" font-size="14" font-weight="bold" lengthAdjust="spacing" textLength="92" x="10" y="18.7803">Book Domain</text></g><!--MD5=[c3f280b58e8dd0683e81b8ec31306a35]
class Author--><g id="elem_Author"><rect codeLine="9" fill="#F1F1F1" height="68" id="Author" rx="2.5" ry="2.5" style="stroke:#181818;stroke-width:0.5;" width="150" x="467" y="46"/><text fill="#000000" font-family="Helvetica" font-size="14" lengthAdjust="spacing" textLength="42" x="521" y="61.7803">Author</text><line style="stroke:#181818;stroke-width:0.5;" x1="468" x2="616" y1="70" y2="70"/><ellipse cx="478" cy="82.5" fill="#000000" rx="3" ry="3" style="stroke:#000000;stroke-width:1.0;"/><text fill="#000000" font-family="Helvetica" font-size="14" lengthAdjust="spacing" textLength="124" x="487" y="84.7803">Id : int «generated»</text><line style="stroke:#181818;stroke-width:1.0;" x1="468" x2="616" y1="92" y2="92"/><ellipse cx="478" cy="104.5" fill="#000000" rx="3" ry="3" style="stroke:#000000;stroke-width:1.0;"/><text fill="#000000" font-family="Helvetica" font-size="14" lengthAdjust="spacing" textLength="85" x="487" y="106.7803">Name : string</text></g><!--MD5=[13fb849c6dfc9273db4c5b2c7ac96a10]
class Publisher--><g id="elem_Publisher"><rect codeLine="15" fill="#F1F1F1" height="68" id="Publisher" rx="2.5" ry="2.5" style="stroke:#181818;stroke-width:0.5;" width="150" x="257" y="156"/><text fill="#000000" font-family="Helvetica" font-size="14" lengthAdjust="spacing" textLength="59" x="302.5" y="171.7803">Publisher</text><line style="stroke:#181818;stroke-width:0.5;" x1="258" x2="406" y1="180" y2="180"/><ellipse cx="268" cy="192.5" fill="#000000" rx="3" ry="3" style="stroke:#000000;stroke-width:1.0;"/><text fill="#000000" font-family="Helvetica" font-size="14" lengthAdjust="spacing" textLength="124" x="277" y="194.7803">Id : int «generated»</text><line style="stroke:#181818;stroke-width:1.0;" x1="258" x2="406" y1="202" y2="202"/><ellipse cx="268" cy="214.5" fill="#000000" rx="3" ry="3" style="stroke:#000000;stroke-width:1.0;"/><text fill="#000000" font-family="Helvetica" font-size="14" lengthAdjust="spacing" textLength="85" x="277" y="216.7803">Name : string</text></g><!--MD5=[84e3a5e42879fb3231104d3c8e592439]
class Book--><g id="elem_Book"><rect codeLine="21" fill="#F1F1F1" height="110" id="Book" rx="2.5" ry="2.5" style="stroke:#181818;stroke-width:0.5;" width="175" x="22" y="77"/><text fill="#000000" font-family="Helvetica" font-size="14" lengthAdjust="spacing" textLength="32" x="93.5" y="92.7803">Book</text><line style="stroke:#181818;stroke-width:0.5;" x1="23" x2="196" y1="101" y2="101"/><ellipse cx="33" cy="113.5" fill="#000000" rx="3" ry="3" style="stroke:#000000;stroke-width:1.0;"/><text fill="#000000" font-family="Helvetica" font-size="14" lengthAdjust="spacing" textLength="124" x="42" y="115.7803">Id : int «generated»</text><line style="stroke:#181818;stroke-width:1.0;" x1="23" x2="196" y1="123" y2="123"/><ellipse cx="33" cy="135.5" fill="#000000" rx="3" ry="3" style="stroke:#000000;stroke-width:1.0;"/><text fill="#000000" font-family="Helvetica" font-size="14" lengthAdjust="spacing" textLength="79" x="42" y="137.7803">ISBN : string</text><ellipse cx="33" cy="149.5" fill="#000000" rx="3" ry="3" style="stroke:#000000;stroke-width:1.0;"/><text fill="#000000" font-family="Helvetica" font-size="14" lengthAdjust="spacing" textLength="74" x="42" y="151.7803">Title : string</text><ellipse cx="33" cy="163.5" fill="#000000" rx="3" ry="3" style="stroke:#000000;stroke-width:1.0;"/><text fill="#000000" font-family="Helvetica" font-size="14" lengthAdjust="spacing" textLength="149" x="42" y="165.7803">PublishedAt : DateTime</text><ellipse cx="33" cy="177.5" fill="#000000" rx="3" ry="3" style="stroke:#000000;stroke-width:1.0;"/><text fill="#000000" font-family="Helvetica" font-size="14" lengthAdjust="spacing" textLength="142" x="42" y="179.7803">FKPublisher : int «FK»</text></g><!--MD5=[28be3cc4e2a027a79614b7e5ec169433]
class BookAuthor--><g id="elem_BookAuthor"><rect codeLine="30" fill="#F1F1F1" height="82" id="BookAuthor" rx="2.5" ry="2.5" style="stroke:#181818;stroke-width:0.5;" width="145" x="259.5" y="39"/><text fill="#000000" font-family="Helvetica" font-size="14" lengthAdjust="spacing" textLength="74" x="295" y="54.7803">BookAuthor</text><line style="stroke:#181818;stroke-width:0.5;" x1="260.5" x2="403.5" y1="63" y2="63"/><ellipse cx="270.5" cy="75.5" fill="#000000" rx="3" ry="3" style="stroke:#000000;stroke-width:1.0;"/><text fill="#000000" font-family="Helvetica" font-size="14" lengthAdjust="spacing" textLength="109" x="279.5" y="77.7803">BookId : int «FK»</text><ellipse cx="270.5" cy="89.5" fill="#000000" rx="3" ry="3" style="stroke:#000000;stroke-width:1.0;"/><text fill="#000000" font-family="Helvetica" font-size="14" lengthAdjust="spacing" textLength="119" x="279.5" y="91.7803">AuthorId : int «FK»</text><line style="stroke:#181818;stroke-width:1.0;" x1="260.5" x2="403.5" y1="99" y2="99"/><ellipse cx="270.5" cy="111.5" fill="#000000" rx="3" ry="3" style="stroke:#000000;stroke-width:1.0;"/><text fill="#000000" font-family="Helvetica" font-size="14" lengthAdjust="spacing" textLength="64" x="279.5" y="113.7803">Order : int</text></g><!--MD5=[ec2e50c1be5731f061052daf6bf802ad]
link Book to Publisher--><g id="link_Book_Publisher"><path codeLine="37" d="M206.95,171.5 C206.95,171.5 247.05,171.5 247.05,171.5 " fill="none" id="Book-Publisher" style="stroke:#181818;stroke-width:1.0;stroke-dasharray:7.0,7.0;"/><line style="stroke:#181818;stroke-width:1.0;" x1="247.05" x2="255.05" y1="171.5" y2="165.5"/><line style="stroke:#181818;stroke-width:1.0;" x1="247.05" x2="255.05" y1="171.5" y2="177.5"/><line style="stroke:#181818;stroke-width:1.0;" x1="247.05" x2="255.05" y1="171.5" y2="171.5"/><ellipse cx="241.05" cy="171.5" fill="none" rx="4" ry="4" style="stroke:#181818;stroke-width:1.0;"/><line style="stroke:#181818;stroke-width:1.0;" x1="202.95" x2="202.95" y1="175.5" y2="167.5"/><line style="stroke:#181818;stroke-width:1.0;" x1="205.95" x2="205.95" y1="175.5" y2="167.5"/><line style="stroke:#181818;stroke-width:1.0;" x1="206.95" x2="198.95" y1="171.5" y2="171.5"/></g><!--MD5=[940dfac0f0250b9702395d08a4f9ba84]
link Book to BookAuthor--><g id="link_Book_BookAuthor"><path codeLine="38" d="M206.95,99 C206.95,99 249.52,99 249.52,99 " fill="none" id="Book-BookAuthor" style="stroke:#181818;stroke-width:1.0;stroke-dasharray:7.0,7.0;"/><line style="stroke:#181818;stroke-width:1.0;" x1="253.52" x2="253.52" y1="95" y2="103"/><line style="stroke:#181818;stroke-width:1.0;" x1="250.52" x2="250.52" y1="95" y2="103"/><line style="stroke:#181818;stroke-width:1.0;" x1="249.52" x2="257.52" y1="99" y2="99"/><line style="stroke:#181818;stroke-width:1.0;" x1="206.95" x2="198.95" y1="99" y2="105"/><line style="stroke:#181818;stroke-width:1.0;" x1="206.95" x2="198.95" y1="99" y2="93"/><line style="stroke:#181818;stroke-width:1.0;" x1="206.95" x2="198.95" y1="99" y2="99"/><line style="stroke:#181818;stroke-width:1.0;" x1="208.95" x2="208.95" y1="103" y2="95"/></g><!--MD5=[df0a76d37fd56aa19ec664565f1d7b4f]
link BookAuthor to Author--><g id="link_BookAuthor_Author"><path codeLine="39" d="M414.37,80 C414.37,80 457.26,80 457.26,80 " fill="none" id="BookAuthor-Author" style="stroke:#181818;stroke-width:1.0;stroke-dasharray:7.0,7.0;"/><line style="stroke:#181818;stroke-width:1.0;" x1="457.26" x2="465.26" y1="80" y2="74"/><line style="stroke:#181818;stroke-width:1.0;" x1="457.26" x2="465.26" y1="80" y2="86"/><line style="stroke:#181818;stroke-width:1.0;" x1="457.26" x2="465.26" y1="80" y2="80"/><ellipse cx="451.26" cy="80" fill="none" rx="4" ry="4" style="stroke:#181818;stroke-width:1.0;"/><line style="stroke:#181818;stroke-width:1.0;" x1="410.37" x2="410.37" y1="84" y2="76"/><line style="stroke:#181818;stroke-width:1.0;" x1="413.37" x2="413.37" y1="84" y2="76"/><line style="stroke:#181818;stroke-width:1.0;" x1="414.37" x2="406.37" y1="80" y2="80"/></g><!--MD5=[d46a1ce36f5c6625250f9f03feff41f1]
@startuml BookApi_ERModel

hide method
hide circle
skinparam DefaultFontName Helvetica
skinparam linetype ortho
left to right direction

package "Book Domain" {
    entity Author {
        * Id : int <<generated>>
        - -
        * Name : string
    }

    entity Publisher {
        * Id : int <<generated>>
        - -
        * Name : string
    }

    entity Book {
        * Id : int <<generated>>
        - -
        * ISBN : string
        * Title : string
        * PublishedAt : DateTime
        * FKPublisher : int <<FK>>
    }

    entity BookAuthor {
        * BookId : int <<FK>>
        * AuthorId : int <<FK>>
        - -
        * Order : int
    }

    Book ||..o{ Publisher
    Book }|..|| BookAuthor
    BookAuthor ||..o{ Author
}
@enduml

PlantUML version 1.2022.7(Tue Aug 23 02:01:30 JST 2022)
(GPL source distribution)
Java Runtime: OpenJDK Runtime Environment
JVM: OpenJDK 64-Bit Server VM
Default Encoding: UTF-8
Language: ja
Country: JP
--></g></svg>